<svg xmlns="http://www.w3.org/2000/svg" width="93.409" height="122.12" viewBox="0 0 93.409 122.12">
  <g id="logo-icon" transform="translate(0)">
    <g id="user" transform="translate(28.643 40.1)">
      <g id="Group_11" data-name="Group 11" transform="translate(0)">
        <path id="Path_12" data-name="Path 12" d="M29.227,22.136a17.055,17.055,0,0,0-6.506-4.081,9.9,9.9,0,1,0-11.2,0A17.148,17.148,0,0,0,0,34.242H3.758c.025-7.966,5.4-13.365,13.363-13.365s13.241,5.4,13.241,13.365h3.88A17.009,17.009,0,0,0,29.227,22.136ZM17.121,17.121A7.223,7.223,0,1,1,24.344,9.9,7.231,7.231,0,0,1,17.121,17.121Z" transform="translate(0)" fill="#f85061"/>
      </g>
    </g>
    <path id="Subtraction_1" data-name="Subtraction 1" d="M89.18,122.12a3.562,3.562,0,0,1-2.591-1.074L66.056,99.783c-6.583,6.008-15.725,9.055-27.17,9.055C13.81,108.838,0,94.108,0,67.36c0-5.379,1.655-11.871,4.919-19.3A139.2,139.2,0,0,1,16.138,27.98l3.728,3.808C10.124,46.712,5.185,58.68,5.185,67.36c0,16.556,5.847,36.293,33.7,36.293,13.577,0,23.205-4.71,28.619-14l3.795,3.87h0l0,0,21.129,21.884a3.561,3.561,0,0,1,.978,2.722,4.307,4.307,0,0,1-4.222,3.986ZM33.7,98.468a2.465,2.465,0,0,1-.259-.013,23.968,23.968,0,0,1-17.464-9.1,27.376,27.376,0,0,1-4.37-8.771,40.1,40.1,0,0,1-1.555-8.824,46.9,46.9,0,0,1,.354-10.013,2.592,2.592,0,0,1,5.111.851l0,.015c-.225,1.51-2.012,15,4.594,23.611A19.009,19.009,0,0,0,33.96,93.3a2.592,2.592,0,0,1-.259,5.171Zm39.923-9.24h0l-4-3.978A49.218,49.218,0,0,0,72.586,67.36c0-8.489-4.733-20.138-14.067-34.626A261.906,261.906,0,0,0,38.885,6.507a267.5,267.5,0,0,0-16.367,21.32l-3.751-3.744A258.435,258.435,0,0,1,36.956.823a2.673,2.673,0,0,1,3.858,0A258.074,258.074,0,0,1,59.858,25.331a150.2,150.2,0,0,1,12.35,21.3c3.691,8.029,5.562,15,5.562,20.725,0,8.474-1.395,15.831-4.146,21.866Z" fill="#f85061"/>
  </g>
</svg>
