<svg xmlns="http://www.w3.org/2000/svg" width="189.027" height="189.027" viewBox="0 0 189.027 189.027">
  <g id="checked" transform="translate(0)">
    <path id="Path_305" data-name="Path 305" d="M90.748,0A90.748,90.748,0,1,1,0,90.748,90.748,90.748,0,0,1,90.748,0Z" transform="translate(3.765 3.765)" fill="#ff7275"/>
    <path id="Path_300" data-name="Path 300" d="M137.874,229.442a9.386,9.386,0,0,1-6.657-2.757L103.729,199.2a9.414,9.414,0,0,1,13.313-13.313l20.832,20.831,58.11-58.11A9.414,9.414,0,0,1,209.3,161.918L144.53,226.684A9.382,9.382,0,0,1,137.874,229.442Z" transform="translate(-63.694 -92.002)" fill="#f7f6fa"/>
    <g id="Group_345" data-name="Group 345" transform="translate(0)">
      <path id="Path_301" data-name="Path 301" d="M94.513,189.027A94.514,94.514,0,0,1,27.682,27.682,94.514,94.514,0,0,1,161.344,161.345,93.894,93.894,0,0,1,94.513,189.027Zm0-181.5A86.983,86.983,0,1,0,181.5,94.513,87.081,87.081,0,0,0,94.513,7.531Z" transform="translate(0)" fill="#090909"/>
      <path id="Path_302" data-name="Path 302" d="M131.45,226.785a13.1,13.1,0,0,1-9.319-3.86L94.643,195.437A13.179,13.179,0,1,1,113.281,176.8l18.169,18.168L186.9,139.52a13.179,13.179,0,0,1,18.638,18.638L140.77,222.925A13.092,13.092,0,0,1,131.45,226.785Zm-27.488-46.313a5.645,5.645,0,0,0-3.994,9.639L127.457,217.6a5.647,5.647,0,0,0,7.987,0l64.766-64.766a5.648,5.648,0,0,0-7.988-7.988l-58.109,58.11a3.766,3.766,0,0,1-5.326,0l-20.831-20.831A5.628,5.628,0,0,0,103.962,180.472Z" transform="translate(-57.271 -85.579)" fill="#090909"/>
      <path id="Path_303" data-name="Path 303" d="M249.566,363.711a3.765,3.765,0,1,1,0-7.531,73.726,73.726,0,0,0,71.524-55.529,3.765,3.765,0,0,1,7.3,1.859A81.251,81.251,0,0,1,249.566,363.711Z" transform="translate(-155.053 -187.863)" fill="#090909"/>
      <path id="Path_304" data-name="Path 304" d="M459.476,256.721c-.055,0-.11,0-.165,0a3.765,3.765,0,0,1-3.6-3.925c.046-1.064.069-2.15.069-3.226a3.765,3.765,0,1,1,7.531,0c0,1.184-.025,2.379-.076,3.551A3.766,3.766,0,0,1,459.476,256.721Z" transform="translate(-287.463 -155.053)" fill="#090909"/>
    </g>
  </g>
</svg>
