<svg xmlns="http://www.w3.org/2000/svg" width="1046.774" height="813" viewBox="0 0 1046.774 813"><path d="M866.459,537.9,658.579,278.128A69.793,69.793,0,0,1,624.96,295.1c-39.136,7.707-77.355-19.018-85.366-59.692-5.662-28.752,5.3-56.763,26.028-73.445L494.74,73.392,90.923,418.516,462.641,883.025Z" transform="translate(-90.923 -73.392)" fill="#f2f2f2"/><line x2="958.133" transform="translate(88.642 812)" fill="none" stroke="#3f3d56" stroke-miterlimit="10" stroke-width="2"/><circle cx="15.921" cy="15.921" r="15.921" transform="translate(652.429 45.49)" fill="none" stroke="#3f3d56" stroke-miterlimit="10" stroke-width="2"/><circle cx="15.921" cy="15.921" r="15.921" transform="translate(862.83 508.372)" fill="none" stroke="#3f3d56" stroke-miterlimit="10" stroke-width="2"/><circle cx="15.921" cy="15.921" r="15.921" transform="translate(168.256 85.412)" fill="none" stroke="#3f3d56" stroke-miterlimit="10" stroke-width="2"/><circle cx="58.605" cy="58.605" r="58.605" transform="translate(458.632 92.16)" fill="#f2f2f2"/><path d="M250.315,182.772h259.62a55.191,55.191,0,0,1,53.839,43.052L694.952,807.681a44.605,44.605,0,0,1-41.318,54.362l-266.89,13.149a58.929,58.929,0,0,1-60.887-48.368l-74.414-411.38-5.536,1.582L231.67,339.055l5.7-1.425L216.6,222.8a33.98,33.98,0,0,1,33.717-40.027Z" transform="translate(-81.041 -64.754)" fill="#3f3d56"/><path d="M473.88,194.4h30.306a38.14,38.14,0,0,1,37.264,30.01l125.916,577.11a23.633,23.633,0,0,1-21.544,28.62L379.793,847.573a30.608,30.608,0,0,1-32.124-25.116l-107.444-596.5a26.808,26.808,0,0,1,26.383-31.56h28.75a12.652,12.652,0,0,1,12.217,9.363h0a11.169,11.169,0,0,0,10.785,8.266H454.844A19.092,19.092,0,0,0,473.88,194.4Z" transform="translate(-79.165 -63.835)" fill="#ff7275"/><rect width="275.274" height="1.356" transform="translate(204.192 279.725)" fill="#2f2e41"/><rect width="277.987" height="1.356" transform="translate(212.329 323.796)" fill="#2f2e41"/><path d="M206.962,258.65l6.255-8.339-1.084-.813-5.406,7.207L185.9,239.661l-.858,1.051Z" transform="translate(14.614 18.928)" fill="#2f2e41"/><path d="M240.267,440.882l6.255-8.34-1.085-.812-5.407,7.206L219.2,421.894l-.858,1.05Z" transform="translate(17.244 33.32)" fill="#2f2e41"/><rect width="288.222" height="1.356" transform="translate(232.656 480.421) rotate(-1.213)" fill="#2f2e41"/><rect width="293.659" height="1.356" transform="matrix(1, -0.023, 0.023, 1, 236.043, 521.096)" fill="#2f2e41"/><path d="M414.96,662.007a64.412,64.412,0,1,0,128.823,0c0-.807-.013-1.607-.047-2.407a64.4,64.4,0,1,0-128.787,2.407Z" transform="translate(-65.333 -32.087)" fill="#f7f6fa" opacity="0.1"/><path d="M420.614,685.171c0,.806.014,1.606.048,2.407a64.419,64.419,0,0,0,122.673-27.494c0-.807-.014-1.607-.047-2.408A64.42,64.42,0,0,0,420.614,685.17Z" transform="translate(-64.885 -30.163)" fill="#f7f6fa" opacity="0.1"/><circle cx="39.706" cy="39.706" r="39.706" transform="translate(707.975 213.764)" fill="#2f2e41"/><path d="M734,696.38l7.553,32.37H723.207l-7.553-36.686Z" transform="translate(56.521 54.658)" fill="#9f616a"/><path d="M652,696.064v30.211l-18.343,2.158v-32.37Z" transform="translate(50.045 54.973)" fill="#9f616a"/><path d="M831.183,451.535s-2.157,46.4-4.315,49.633-21.58,49.633-21.58,49.633l-9.711-30.212s15.106-24.816,12.948-38.843-.8-31.288-.8-31.288Z" transform="translate(-35.271 -43.612)" fill="#9f616a"/><circle cx="30.211" cy="30.211" r="30.211" transform="translate(704.199 235.286)" fill="#9f616a"/><path d="M797.262,322.456s-1.078,43.159,6.475,49.633-43.16,1.079-43.16,1.079,10.79-30.211,2.158-36.685S797.262,322.456,797.262,322.456Z" transform="translate(-38.036 -53.722)" fill="#9f616a"/><path d="M762.305,368.251s6.475-11.869,15.105-10.79,36.685,3.237,37.765,5.4,4.316,9.711,6.474,11.868,18.342,5.4,19.421,18.343-38.843,91.713-38.843,91.713,5.395,18.342,4.315,22.659,5.4,17.263,4.317,22.659,16.185,37.764,7.552,79.844v67.976s29.132,117.608,20.5,126.24-37.765,3.237-43.158,0S767.7,638,767.7,638l-10.79-55.028-1.08,120.846s2.158,101.424-5.395,104.661-36.685,4.316-38.843-2.158c-1.683-5.049-9.929-139.392-13.478-198.28a220.017,220.017,0,0,1,4.75-60.612c4.491-20.368,11.011-44.3,18.439-54.011,14.026-18.343,22.658-76.607,22.658-76.607L725.62,383.357s10.789-10.79,17.263-10.79S762.305,368.251,762.305,368.251Z" transform="translate(-43 -50.962)" fill="#2f2e41"/><path d="M826.118,383.456l5.69,3.873s4.02,69.5.784,73.813-25.742,2.21-27.437-1.592S826.118,383.456,826.118,383.456Z" transform="translate(-34.523 -48.904)" fill="#2f2e41"/><path d="M742.532,442.462c3.159,21.91,5.926,41.415-10.223,59.06a303.054,303.054,0,0,1-54.524,47.229c-1.981,5.247-31.059,43.777-32.538,28.408s8.568-27.418,22.844-40.414,34.249-41.2,45.519-56.669,6.629-25.122,6.238-38.046S738.1,442.618,742.532,442.462Z" transform="translate(-47.155 -44.72)" fill="#9f616a"/><path d="M725.69,781.255s-1.079,12.086-4.316,15.323S709.5,804.13,710.584,816s8.093,12.408,8.093,12.408l-.54-2.7,3.237,1.081.538,1.617h30.212s.539-11.329-.54-16.724-1.079-31.29-4.316-30.211-11.868,2.158-14.026,6.473S724.611,790.75,725.69,781.255Z" transform="translate(-41.991 -17.486)" fill="#2f2e41"/><path d="M828.521,781.255s1.079,12.086,4.316,15.323,11.869,7.553,10.79,19.422-8.093,12.408-8.093,12.408l.54-2.7-3.237,1.081-.54,1.617H802.087s-.54-11.329.54-16.724,1.078-31.29,4.315-30.211,11.868,2.158,14.027,6.473S829.6,790.75,828.521,781.255Z" transform="translate(-34.768 -17.486)" fill="#2f2e41"/><path d="M739.687,378.456l-15.106,3.237s0,23.737-4.316,33.448-11.869,32.369-8.632,33.449,33.448,16.184,35.606,7.552S754.793,378.456,739.687,378.456Z" transform="translate(-41.963 -49.299)" fill="#2f2e41"/><circle cx="39.706" cy="39.706" r="39.706" transform="translate(750.99 161.484)" fill="#2f2e41"/><path d="M859.974,293.046A39.71,39.71,0,0,1,798.656,272.2a39.709,39.709,0,1,0,77.457-16.283A39.7,39.7,0,0,1,859.974,293.046Z" transform="translate(-35.028 -58.977)" fill="#2f2e41"/><circle cx="29.118" cy="29.118" r="29.118" transform="translate(729.152 230.97)" fill="#2f2e41"/><ellipse cx="25.809" cy="20.184" rx="25.809" ry="20.184" transform="translate(707.976 228.984)" fill="#2f2e41"/><ellipse cx="4.898" cy="8.666" rx="4.898" ry="8.666" transform="translate(722.002 261.185)" fill="#a0616a"/></svg>