<svg xmlns="http://www.w3.org/2000/svg" width="38.693" height="24.76" viewBox="0 0 38.693 24.76">
  <g id="donors-icon" transform="translate(0 -92.184)">
    <g id="Group_35" data-name="Group 35" transform="translate(10.905 92.184)">
      <g id="Group_34" data-name="Group 34">
        <path id="Path_28" data-name="Path 28" d="M159.4,106.133l-3.294-1.464a.645.645,0,0,1-.383-.589v-.9a4.8,4.8,0,0,0,1.818-3.76V98.142a1.175,1.175,0,0,0,.606-1.027v-.124a4.813,4.813,0,0,0-4.807-4.807h-1.212a4.813,4.813,0,0,0-4.807,4.807v1.121a1.189,1.189,0,0,0,.452.952,1.108,1.108,0,0,0,.153.1v.25a4.8,4.8,0,0,0,1.817,3.76v.9a.645.645,0,0,1-.383.589l-3.294,1.464a2.993,2.993,0,0,0-1.776,2.732v7.512a.567.567,0,1,0,1.134,0v-7.512a1.852,1.852,0,0,1,.011-.195l1.518,1.518a1.243,1.243,0,0,1,.366.884v5.305a.567.567,0,1,0,1.134,0v-5.305a2.369,2.369,0,0,0-.7-1.686l-1.809-1.809a1.852,1.852,0,0,1,.581-.408l3.238-1.439,2.4,2.4v8.246a.567.567,0,0,0,1.134,0v-8.246l2.4-2.4,3.238,1.439a1.851,1.851,0,0,1,.581.408l-1.809,1.809a2.368,2.368,0,0,0-.7,1.686v5.305a.567.567,0,1,0,1.134,0v-5.305a1.242,1.242,0,0,1,.366-.884l1.518-1.518a1.85,1.85,0,0,1,.011.195v7.512a.567.567,0,1,0,1.134,0v-7.512A2.993,2.993,0,0,0,159.4,106.133Zm-6.667.962-2.107-2.107a1.775,1.775,0,0,0,.251-.908v-.231a4.8,4.8,0,0,0,3.713,0v.231a1.775,1.775,0,0,0,.251.908Zm0-4.006a3.678,3.678,0,0,1-3.674-3.674V99.16a3.351,3.351,0,0,0,1.029-.668.567.567,0,0,0-.769-.833,2.036,2.036,0,0,1-.842.5l-.015,0a.115.115,0,0,1-.01-.051V96.992a3.678,3.678,0,0,1,3.674-3.674h1.212a3.678,3.678,0,0,1,3.674,3.674v.124a.036.036,0,0,1-.026.037c-3.394.67-5.1-.593-5.671-1.167a.567.567,0,1,0-.8.8c1.76,1.76,4.328,1.792,5.892,1.6v1.024A3.678,3.678,0,0,1,152.734,103.088Z" transform="translate(-144.292 -92.184)" fill="#fff"/>
      </g>
    </g>
    <g id="Group_37" data-name="Group 37" transform="translate(0 95.213)">
      <g id="Group_36" data-name="Group 36" transform="translate(0 0)">
        <path id="Path_29" data-name="Path 29" d="M10.221,140.1V138.89a4.2,4.2,0,0,0-1.926-3.529,2.384,2.384,0,1,0-4.551,0,4.2,4.2,0,0,0-1.926,3.529V140.1a4.2,4.2,0,0,0,1.817,3.457V144.8a.641.641,0,0,1-.356.577l-1.96.98A2.371,2.371,0,0,0,0,148.494v4.935a.567.567,0,0,0,1.134,0v-4.69l.923.923a1.243,1.243,0,0,1,.366.884v2.882a.567.567,0,0,0,1.134,0v-2.882a2.369,2.369,0,0,0-.7-1.686l-1.285-1.285-.019-.017a1.264,1.264,0,0,1,.271-.183l1.96-.98a1.8,1.8,0,0,0,.281-.175l1.386,1.386v5.823a.567.567,0,1,0,1.134,0v-5.823l1.386-1.386a1.8,1.8,0,0,0,.281.175l.541.27a.567.567,0,1,0,.507-1.014l-.541-.27A.641.641,0,0,1,8.4,144.8v-1.246A4.2,4.2,0,0,0,10.221,140.1Zm-4.2-6.7a1.252,1.252,0,0,1,1.251,1.251,1.27,1.27,0,0,1-.02.223,4.2,4.2,0,0,0-2.46,0A1.243,1.243,0,0,1,6.019,133.4Zm0,2.423a3.072,3.072,0,0,1,3.068,3.068v.205a3.558,3.558,0,0,1-3.826-1.151.567.567,0,0,0-.854-.061,3.708,3.708,0,0,1-1.454.928A3.071,3.071,0,0,1,6.019,135.822Zm0,10.748-1.31-1.31a1.8,1.8,0,0,0,.059-.455v-.692a4.209,4.209,0,0,0,2.5,0v.692a1.794,1.794,0,0,0,.059.455Zm0-3.4A3.072,3.072,0,0,1,2.951,140.1v-.117a4.545,4.545,0,0,0,1.821-.907,5.115,5.115,0,0,0,1.051.765,4.508,4.508,0,0,0,2.166.559,4.749,4.749,0,0,0,1.093-.131A3.072,3.072,0,0,1,6.019,143.169Z" transform="translate(0 -132.265)" fill="#fff"/>
      </g>
    </g>
    <g id="Group_39" data-name="Group 39" transform="translate(27.261 96.425)">
      <g id="Group_38" data-name="Group 38" transform="translate(0 0)">
        <path id="Path_30" data-name="Path 30" d="M370.84,159.972l-3.172-1.586a.641.641,0,0,1-.356-.577v-.8a3.587,3.587,0,0,0,1.212-2.689v-.645h.039a.567.567,0,0,0,.567-.567v-1.212a3.6,3.6,0,0,0-3.6-3.6h-1.212a3.6,3.6,0,0,0-3.6,3.6v1.212a.567.567,0,0,0,.567.567h.039v.646a3.587,3.587,0,0,0,1.212,2.689v.8a.641.641,0,0,1-.356.577.567.567,0,1,0,.507,1.014,1.8,1.8,0,0,0,.281-.175l1.386,1.386v7.641a.567.567,0,0,0,1.134,0V160.61l1.386-1.386a1.8,1.8,0,0,0,.281.175l3.069,1.535-.931.931a2.369,2.369,0,0,0-.7,1.686v4.7a.567.567,0,1,0,1.134,0v-4.7a1.242,1.242,0,0,1,.366-.884l.882-.882a1.264,1.264,0,0,1,.041.319v6.146a.567.567,0,0,0,1.134,0V162.1A2.371,2.371,0,0,0,370.84,159.972Zm-8.981-7.55v-.528h0a2.465,2.465,0,0,1,2.462-2.462h1.212A2.465,2.465,0,0,1,368,151.894v.63a8.669,8.669,0,0,1-3.965-1.1.567.567,0,0,0-.715.071A3.712,3.712,0,0,1,361.86,152.422Zm3.068,7.151-1.31-1.31a1.8,1.8,0,0,0,.059-.455v-.121a3.593,3.593,0,0,0,2.5,0v.121a1.791,1.791,0,0,0,.059.455Zm0-2.794a2.465,2.465,0,0,1-2.462-2.462V153.4h0a4.8,4.8,0,0,0,1.33-.812,10.069,10.069,0,0,0,3.594,1.022v.7A2.465,2.465,0,0,1,364.928,156.779Z" transform="translate(-360.726 -148.298)" fill="#fff"/>
      </g>
    </g>
  </g>
</svg>
