<svg id="drops-icon" xmlns="http://www.w3.org/2000/svg" width="22.653" height="26.132" viewBox="0 0 22.653 26.132">
  <path id="Path_21" data-name="Path 21" d="M6.972,18.29c4.214,0,6.535-2.475,6.535-6.97C13.507,7.111,7.55.421,7.3.138a.449.449,0,0,0-.648,0C6.395.42.438,7.111.438,11.32c0,4.495,2.321,6.97,6.535,6.97Zm0-17.2C8.22,2.557,12.636,7.974,12.636,11.32c0,2.782-.983,6.1-5.663,6.1S1.309,14.1,1.309,11.32C1.309,7.974,5.725,2.557,6.972,1.094Zm0,0" transform="translate(-0.438 0)" fill="#fff"/>
  <path id="Path_22" data-name="Path 22" d="M276.359,155.305c2.492,0,3.921-1.663,3.921-4.563,0-2.723-3.455-6.467-3.6-6.625a.449.449,0,0,0-.638,0c-.147.158-3.6,3.9-3.6,6.625,0,2.9,1.429,4.563,3.921,4.563Zm0-10.233c.84.978,3.05,3.733,3.05,5.67,0,2.45-1.026,3.692-3.05,3.692s-3.049-1.242-3.049-3.692C273.309,148.8,275.518,146.05,276.359,145.072Zm0,0" transform="translate(-257.626 -136.144)" fill="#fff"/>
  <path id="Path_23" data-name="Path 23" d="M179.161,320.137c-.111.126-2.723,3.109-2.723,5.081,0,2.215,1.112,3.485,3.049,3.485s3.049-1.27,3.049-3.485c0-1.972-2.612-4.955-2.723-5.081a.45.45,0,0,0-.653,0Zm.327,7.694c-1.445,0-2.178-.88-2.178-2.614,0-1.184,1.363-3.112,2.178-4.116.816,1,2.178,2.93,2.178,4.116C181.666,326.951,180.932,327.831,179.487,327.831Zm0,0" transform="translate(-166.854 -302.571)" fill="#fff"/>
  <path id="Path_24" data-name="Path 24" d="M35.058,190.622l.044,0a.436.436,0,0,0,.044-.869,3.192,3.192,0,0,1-2.328-1.188,5.938,5.938,0,0,1-.772-3.97.436.436,0,0,0-.859-.143,6.715,6.715,0,0,0,.936,4.64A4.026,4.026,0,0,0,35.058,190.622Zm0,0" transform="translate(-29.439 -174.077)" fill="#fff"/>
  <path id="Path_25" data-name="Path 25" d="M328.874,259.536a3.033,3.033,0,0,0,2.131-.918,2.6,2.6,0,0,0,.477-2.2.436.436,0,0,0-.859.144,1.787,1.787,0,0,1-.28,1.493,2.169,2.169,0,0,1-1.469.613.436.436,0,1,0,0,.871Zm0,0" transform="translate(-310.577 -242.118)" fill="#fff"/>
  <path id="Path_26" data-name="Path 26" d="M207.454,409.222a.5.5,0,0,1-.24-.722.436.436,0,0,0-.78-.389,1.371,1.371,0,0,0,.631,1.894.436.436,0,1,0,.389-.78Zm0,0" transform="translate(-195.061 -385.658)" fill="#fff"/>
</svg>
