<svg xmlns="http://www.w3.org/2000/svg" width="21" height="21" viewBox="0 0 21 21">
  <g id="search-icon" transform="translate(-0.001 0)">
    <path id="Path_9" data-name="Path 9" d="M303.7,300.972l-4.729-4.729a9.1,9.1,0,0,1-2.733,2.732l4.729,4.729a1.932,1.932,0,0,0,2.732-2.732Z" transform="translate(-283.263 -283.271)" fill="#707070"/>
    <path id="Path_10" data-name="Path 10" d="M15.46,7.73a7.73,7.73,0,1,0-7.73,7.729A7.73,7.73,0,0,0,15.46,7.73Zm-7.73,5.8a5.8,5.8,0,1,1,5.8-5.8A5.8,5.8,0,0,1,7.731,13.527Z" transform="translate(0)" fill="#707070"/>
    <path id="Path_11" data-name="Path 11" d="M75.817,80.325h1.288A3.224,3.224,0,0,1,80.326,77.1V75.816A4.514,4.514,0,0,0,75.817,80.325Z" transform="translate(-72.373 -72.373)" fill="#707070"/>
  </g>
</svg>
