<svg id="blood-ban-icon" xmlns="http://www.w3.org/2000/svg" width="52.075" height="52.075" viewBox="0 0 52.075 52.075">
  <g id="Layer_2" transform="translate(0.868 0.864)">
    <path id="Shape" d="M32.981,10.231V43.844a2.294,2.294,0,0,1-2.288,2.288H2.288A2.294,2.294,0,0,1,0,43.844V10.231A2.294,2.294,0,0,1,2.288,7.943H4.655A2.288,2.288,0,0,0,6.943,5.655V3.288A2.294,2.294,0,0,1,9.231,1H23.75a2.294,2.294,0,0,1,2.288,2.288V5.655a2.288,2.288,0,0,0,2.288,2.288h2.368a2.294,2.294,0,0,1,2.288,2.288Z" transform="translate(0 -0.996)" fill="#f7f6fa"/>
    <path id="Shape-2" data-name="Shape" d="M33.911,7.943H31.543a2.288,2.288,0,0,1-2.288-2.288V3.288A2.294,2.294,0,0,0,26.968,1h-2.6a2.294,2.294,0,0,1,2.288,2.288V5.656A2.288,2.288,0,0,0,28.94,7.943h2.368A2.294,2.294,0,0,1,33.6,10.231V43.844a2.294,2.294,0,0,1-2.288,2.288h2.6A2.294,2.294,0,0,0,36.2,43.844V10.231a2.294,2.294,0,0,0-2.288-2.288Z" transform="translate(-3.218 -0.996)" fill="none"/>
    <path id="Shape-3" data-name="Shape" d="M29.3,13.868v9.547H5V13.868A.868.868,0,0,1,5.868,13H28.434A.868.868,0,0,1,29.3,13.868Z" transform="translate(-0.66 -2.581)" fill="none"/>
    <path id="Shape-4" data-name="Shape" d="M29.3,25V44.962a.868.868,0,0,1-.868.868H5.868A.868.868,0,0,1,5,44.962V25Z" transform="translate(-0.66 -4.166)" fill="#f85061"/>
    <path id="Shape-5" data-name="Shape" d="M15,53h6.943v2.6a2.6,2.6,0,0,1-2.6,2.6H17.6A2.6,2.6,0,0,1,15,55.6Z" transform="translate(-1.981 -7.865)" fill="none"/>
    <path id="Shape-6" data-name="Shape" d="M55.887,49.109a6.943,6.943,0,1,1-13.887,0c0-4.687,4.7-9.373,6.369-10.885a.851.851,0,0,1,1.149,0c1.664,1.512,6.369,6.2,6.369,10.885Z" transform="translate(-5.548 -5.883)" fill="#f85061"/>
    <path id="Shape-7" data-name="Shape" d="M50.376,38.223a.851.851,0,0,0-1.149,0c-.2.183-.45.415-.727.686,2.01,1.964,5.641,6.081,5.641,10.2A7.072,7.072,0,0,1,48.5,56.1a6.778,6.778,0,0,0,1.3.128,7.03,7.03,0,0,0,6.943-7.117c0-4.687-4.7-9.373-6.369-10.886Z" transform="translate(-6.406 -5.883)" fill="#c81e1e"/>
    <path id="Shape-8" data-name="Shape" d="M52.942,25.814a3.48,3.48,0,1,1-6.943,0c0-2.455,2.352-4.911,3.184-5.7a.412.412,0,0,1,.575,0C50.59,20.907,52.942,23.363,52.942,25.814Z" transform="translate(-6.075 -3.505)" fill="#f85061"/>
    <path id="Shape-9" data-name="Shape" d="M50.089,20.116a.412.412,0,0,0-.575,0c-.241.23-.608.608-1.015,1.072a7.839,7.839,0,0,1,2.17,4.627,3.732,3.732,0,0,1-2.17,3.452,3.25,3.25,0,0,0,1.3.28,3.607,3.607,0,0,0,3.472-3.732C53.274,23.363,50.921,20.908,50.089,20.116Z" transform="translate(-6.406 -3.506)" fill="#c81e1e"/>
    <path id="Shape-10" data-name="Shape" d="M52.942,6.814a3.48,3.48,0,1,1-6.943,0c0-2.455,2.352-4.911,3.184-5.7a.412.412,0,0,1,.575,0C50.59,1.907,52.942,4.363,52.942,6.814Z" transform="translate(-6.075 -0.996)" fill="#f85061"/>
    <path id="Shape-11" data-name="Shape" d="M50.089,1.116a.412.412,0,0,0-.575,0c-.241.23-.608.608-1.015,1.072a7.839,7.839,0,0,1,2.17,4.627,3.732,3.732,0,0,1-2.17,3.452,3.25,3.25,0,0,0,1.3.28,3.607,3.607,0,0,0,3.472-3.732c0-2.452-2.352-4.907-3.184-5.7Z" transform="translate(-6.406 -0.996)" fill="#c81e1e"/>
    <ellipse id="Oval" cx="1.5" cy="2" rx="1.5" ry="2" transform="translate(15.132 3.136)" fill="none"/>
  </g>
  <g id="Layer_3" transform="translate(0 0)">
    <path id="Shape-12" data-name="Shape" d="M3.156,46.867h9.863V48.6a3.472,3.472,0,0,0,3.472,3.472h1.736A3.472,3.472,0,0,0,21.7,48.6V46.867h9.863a3.159,3.159,0,0,0,3.156-3.156V10.1a3.159,3.159,0,0,0-3.156-3.156H29.193a1.422,1.422,0,0,1-1.42-1.42V3.156A3.159,3.159,0,0,0,24.618,0H10.1A3.159,3.159,0,0,0,6.943,3.156V5.523a1.422,1.422,0,0,1-1.42,1.42H3.156A3.159,3.159,0,0,0,0,10.1V43.712a3.159,3.159,0,0,0,3.156,3.156ZM19.962,48.6a1.736,1.736,0,0,1-1.736,1.736H16.49A1.736,1.736,0,0,1,14.755,48.6V46.867h5.207ZM1.736,10.1a1.422,1.422,0,0,1,1.42-1.42H5.523A3.159,3.159,0,0,0,8.679,5.523V3.156a1.422,1.422,0,0,1,1.42-1.42H24.618a1.422,1.422,0,0,1,1.42,1.42V5.523a3.159,3.159,0,0,0,3.156,3.156h2.368a1.422,1.422,0,0,1,1.42,1.42V43.712a1.422,1.422,0,0,1-1.42,1.42H3.156a1.422,1.422,0,0,1-1.42-1.42Z" transform="translate(0 0)"/>
    <path id="Shape-13" data-name="Shape" d="M6.736,44.981H29.3a1.736,1.736,0,0,0,1.736-1.736V13.736A1.736,1.736,0,0,0,29.3,12H6.736A1.736,1.736,0,0,0,5,13.736V43.245A1.736,1.736,0,0,0,6.736,44.981ZM29.3,13.736v8.679H14.547a.868.868,0,1,0,0,1.736H29.3v1.736H26.7a.868.868,0,0,0,0,1.736h2.6v1.736H25.83a.868.868,0,1,0,0,1.736H29.3V32.83H26.7a.868.868,0,0,0,0,1.736h2.6V36.3H25.83a.868.868,0,1,0,0,1.736H29.3v1.736H26.7a.868.868,0,1,0,0,1.736h2.6v1.736H6.736V24.151h4.024a.868.868,0,1,0,0-1.736H6.736V13.736Z" transform="translate(-0.66 -1.585)"/>
    <path id="Shape-14" data-name="Shape" d="M50.969,37.448a1.713,1.713,0,0,0-2.316,0C46.653,39.264,42,44.024,42,48.977a7.811,7.811,0,0,0,15.622,0C57.622,44.024,52.97,39.264,50.969,37.448ZM49.811,55.226a6.171,6.171,0,0,1-6.075-6.249c0-4.378,4.657-8.947,6.067-10.241,1.427,1.293,6.084,5.863,6.084,10.241A6.171,6.171,0,0,1,49.811,55.226Z" transform="translate(-5.548 -4.887)"/>
    <path id="Shape-15" data-name="Shape" d="M50.343,30.283a4.478,4.478,0,0,0,4.34-4.6c0-2.747-2.415-5.343-3.454-6.331a1.285,1.285,0,0,0-1.771,0C43.211,25.3,46.718,30.283,50.343,30.283Zm0-9.363c.882.9,2.6,2.892,2.6,4.767a2.615,2.615,0,1,1-5.207,0c0-1.875,1.722-3.869,2.6-4.767Z" transform="translate(-6.079 -2.509)"/>
    <path id="Shape-16" data-name="Shape" d="M54.683,6.683c0-2.743-2.415-5.339-3.454-6.327a1.285,1.285,0,0,0-1.771,0c-6.246,5.945-2.739,10.927.886,10.927A4.478,4.478,0,0,0,54.683,6.683Zm-6.943,0c0-1.875,1.722-3.869,2.6-4.767.882.9,2.6,2.892,2.6,4.767a2.615,2.615,0,1,1-5.207,0Z" transform="translate(-6.079 0)"/>
    <path id="Shape-17" data-name="Shape" d="M49.7,42.793C48.318,44.3,46,47.221,46,49.812a.868.868,0,0,0,1.736,0c0-1.442,1.215-3.628,3.244-5.846a.868.868,0,1,0-1.28-1.173Z" transform="translate(-6.076 -5.615)"/>
    <path id="Shape-18" data-name="Shape" d="M19.6,9.207A2.6,2.6,0,1,0,17,6.6,2.6,2.6,0,0,0,19.6,9.207Zm0-3.472a.868.868,0,1,1-.868.868A.868.868,0,0,1,19.6,5.736Z" transform="translate(-2.245 -0.528)"/>
    <ellipse id="Oval-2" data-name="Oval" cx="0.5" cy="1" rx="0.5" ry="1" transform="translate(42 46)"/>
  </g>
</svg>
