<svg xmlns="http://www.w3.org/2000/svg" width="50" height="59.78" viewBox="0 0 50 59.78">
  <g id="find-a-donor-icon" transform="translate(0 -0.224)">
    <g id="Layer_2" transform="translate(1 1)">
      <path id="Shape" d="M48,24.224c0,13.92-17.83,29.339-22.754,33.331a1.968,1.968,0,0,1-2.492,0C17.83,53.563,0,38.144,0,24.224a24,24,0,0,1,48,0Z" fill="#f85061"/>
      <path id="Shape-2" data-name="Shape" d="M24,0c-.5,0-1,.021-1.5.052A24.127,24.127,0,0,1,45,24.224c0,13.7-17.258,28.841-22.5,33.124.085.069.175.144.254.207a1.968,1.968,0,0,0,2.492,0C30.17,53.563,48,38.144,48,24.224A24.112,24.112,0,0,0,24,0Z" fill="#c81e1e"/>
      <circle id="Oval" cx="19" cy="19" r="19" transform="translate(5 5)" fill="#f5f5f5"/>
      <path id="Shape-3" data-name="Shape" d="M24,5c-.506,0-1,.037-1.5.076a18.982,18.982,0,0,1,0,37.848c.5.039.994.076,1.5.076A19,19,0,1,0,24,5Z" fill="#cfd8dc"/>
      <path id="Shape-4" data-name="Shape" d="M34.7,28.11c-.68,2.44-2.48,3.7-3.77,4.95C29.3,34.65,24,39,24,39s-5.3-4.35-6.93-5.94c-1.29-1.25-3.09-2.51-3.77-4.95A6.428,6.428,0,0,1,16.99,27c3.5,0,3.5,2,7,2s3.5-2,7.01-2A6.438,6.438,0,0,1,34.7,28.11Z" fill="#f85061"/>
      <path id="Shape-5" data-name="Shape" d="M35,25.94a7.158,7.158,0,0,1-.3,2.17A6.438,6.438,0,0,0,31,27c-3.51,0-3.51,2-7.01,2s-3.5-2-7-2a6.428,6.428,0,0,0-3.69,1.11h-.01A7.5,7.5,0,0,1,13,25.94C13,21.98,15.44,20,18.7,20A6.024,6.024,0,0,1,24,23.17,6.024,6.024,0,0,1,29.3,20C32.56,20,35,21.98,35,25.94Z" fill="#f7f6fa"/>
      <path id="Shape-6" data-name="Shape" d="M26.86,13.88a2.871,2.871,0,1,1-5.72,0c0-2.06,1.94-4.12,2.62-4.78a.344.344,0,0,1,.48,0c.68.66,2.62,2.72,2.62,4.78Z" fill="#f85061"/>
    </g>
    <g id="Layer_3">
      <path id="Shape-7" data-name="Shape" d="M25.635,40.772c5.761-4.737,6.7-5.743,7.68-6.635C34.87,32.724,37,30.79,37,26.938c0-7.543-8.291-8.771-12-4.5-3.708-4.266-12-3.044-12,4.5,0,3.852,2.13,5.786,3.685,7.2.97.881,1.912,1.891,7.68,6.635a1,1,0,0,0,1.27,0ZM19.7,22a5.019,5.019,0,0,1,4.407,2.624,1.041,1.041,0,0,0,1.778,0A5.019,5.019,0,0,1,30.3,22c3.311,0,4.947,2.209,4.661,5.589A6.9,6.9,0,0,0,32,27c-3.71,0-3.988,2-7.01,2-3.1,0-3.212-2-7-2a6.87,6.87,0,0,0-2.947.589C14.759,24.217,16.386,22,19.7,22Zm-.933,11.345c-1.145-1.112-2.515-2.1-3.249-3.767A4.883,4.883,0,0,1,17.99,29c3.1,0,3.213,2,7,2,3.73,0,3.956-2,7.01-2a4.905,4.905,0,0,1,2.478.578c-.738,1.679-2.127,2.678-3.249,3.767C29.979,34.56,26.451,37.5,25,38.7c-1.451-1.2-4.979-4.14-6.229-5.355Z"/>
      <path id="Shape-8" data-name="Shape" d="M25,19c3.253,0,6.252-4.464.933-9.62a1.334,1.334,0,0,0-1.865,0C18.744,14.541,21.77,19,25,19Zm0-7.711a6.165,6.165,0,0,1,1.857,3.587,1.874,1.874,0,1,1-3.714,0A6.165,6.165,0,0,1,25,11.289Z"/>
      <path id="Shape-9" data-name="Shape" d="M26.876,59.333C32.3,54.934,50,39.474,50,25.224a25,25,0,0,0-50,0c0,14.25,17.7,29.71,23.124,34.109a2.958,2.958,0,0,0,3.752,0ZM2,25.224a23,23,0,0,1,46,0c0,3.379-1.614,15.713-22.384,32.555a.969.969,0,0,1-1.232,0C3.614,40.937,2,28.6,2,25.224Z"/>
      <path id="Shape-10" data-name="Shape" d="M45,25A20,20,0,1,0,25,45,20,20,0,0,0,45,25ZM7,25A18,18,0,1,1,25,43,18,18,0,0,1,7,25Z"/>
    </g>
  </g>
</svg>
