<svg xmlns="http://www.w3.org/2000/svg" width="53.245" height="55.912" viewBox="0 0 53.245 55.912">
  <g id="reqeusts-icon" transform="translate(-12.213)">
    <path id="Path_33" data-name="Path 33" d="M42.494,326.125H32.5a10.291,10.291,0,0,0-10.291,10.291v8.915H52.784v-8.916A10.291,10.291,0,0,0,42.494,326.125Z" transform="translate(-8.908 -290.511)" fill="none"/>
    <path id="Path_34" data-name="Path 34" d="M108.153,328l6.061,10.272L120.275,328Z" transform="translate(-85.463 -292.179)" fill="#f85061"/>
    <path id="Path_35" data-name="Path 35" d="M252.835,14.368V29a4.368,4.368,0,0,1-4.368,4.368h-3.981l-7.023,7.019V33.367h-9.308A4.368,4.368,0,0,1,223.787,29V14.368A4.368,4.368,0,0,1,228.155,10h20.312A4.368,4.368,0,0,1,252.835,14.368Z" transform="translate(-188.469 -8.908)" fill="#ff7275"/>
    <path id="Path_36" data-name="Path 36" d="M106.535,212.473a7.389,7.389,0,0,0,4.216,1.322h3.289v3.185a6.727,6.727,0,0,1-6.727,6.727h0a6.727,6.727,0,0,1-6.727-6.727v-3.185l2.25-1.322,2.25-1.322Z" transform="translate(-78.722 -188.092)" fill="#ffcdac"/>
    <path id="Path_37" data-name="Path 37" d="M106.119,155.263h9v4.466a4.2,4.2,0,0,1-4.195,4.195H100.588v-3.129A5.531,5.531,0,0,1,106.119,155.263Z" transform="translate(-78.724 -138.308)" fill="#ffc870"/>
    <path id="Path_38" data-name="Path 38" d="M33.995,163.93a7.8,7.8,0,0,0,2.415-5.643v-4.271a5.259,5.259,0,0,0,1.078-3.194v-4.466a1.092,1.092,0,0,0-1.092-1.092h-9a6.631,6.631,0,0,0-6.623,6.623v6.4a7.8,7.8,0,0,0,2.415,5.643A11.4,11.4,0,0,0,12.213,175.3v8.916a1.092,1.092,0,0,0,1.092,1.092H43.876a1.092,1.092,0,0,0,1.092-1.092V175.3A11.4,11.4,0,0,0,33.995,163.93ZM22.956,151.887a4.444,4.444,0,0,1,4.439-4.439H35.3v3.374a3.106,3.106,0,0,1-3.1,3.1H22.956v-2.038Zm0,6.4v-2.179H32.2a5.256,5.256,0,0,0,2.025-.4v2.583a5.635,5.635,0,1,1-11.27,0Zm10.064,7.819-4.269,7.236-4.269-7.236Zm9.764,17.022H40.326v-7.637a1.092,1.092,0,0,0-2.184,0v7.637H19.359v-7.637a1.092,1.092,0,1,0-2.184,0v7.637H14.4V175.3a9.212,9.212,0,0,1,7.629-9.062l5.784,9.8a1.092,1.092,0,0,0,1.881,0l5.753-9.751a9.214,9.214,0,0,1,7.34,9.01v7.823Z" transform="translate(0 -129.4)"/>
    <path id="Path_39" data-name="Path 39" d="M275.19,0h-6.175a1.092,1.092,0,1,0,0,2.184h6.175a3.28,3.28,0,0,1,3.276,3.276v14.63a3.28,3.28,0,0,1-3.276,3.276h-3.981a1.092,1.092,0,0,0-.772.32l-5.159,5.156V24.459a1.092,1.092,0,0,0-1.092-1.092h-9.308a1.092,1.092,0,0,0,0,2.184h8.216v5.927a1.092,1.092,0,0,0,1.864.772l6.7-6.7h3.529a5.466,5.466,0,0,0,5.46-5.46V5.46A5.466,5.466,0,0,0,275.19,0Z" transform="translate(-215.192)"/>
    <path id="Path_40" data-name="Path 40" d="M347.878,2.184a1.092,1.092,0,0,0,1.092-1.092,1.092,1.092,0,1,0-1.864.772A1.1,1.1,0,0,0,347.878,2.184Z" transform="translate(-298.036)"/>
    <path id="Path_41" data-name="Path 41" d="M214.878,12.611a1.092,1.092,0,0,0,1.092-1.092V5.46a3.28,3.28,0,0,1,3.276-3.276h6.165a1.092,1.092,0,1,0,0-2.184h-6.165a5.466,5.466,0,0,0-5.46,5.46v6.058A1.092,1.092,0,0,0,214.878,12.611Z" transform="translate(-179.56)"/>
    <path id="Path_42" data-name="Path 42" d="M204.774,427.086h-1.529a1.092,1.092,0,1,0,0,2.184h1.529a1.092,1.092,0,1,0,0-2.184Z" transform="translate(-169.198 -380.446)"/>
    <path id="Path_43" data-name="Path 43" d="M129.608,260.824a1.092,1.092,0,1,0-.772-.32A1.1,1.1,0,0,0,129.608,260.824Z" transform="translate(-103.602 -230.395)"/>
    <path id="Path_44" data-name="Path 44" d="M176.948,260.824a1.092,1.092,0,1,0-.772-.32A1.1,1.1,0,0,0,176.948,260.824Z" transform="translate(-145.773 -230.395)"/>
    <path id="Path_45" data-name="Path 45" d="M319.774,59.124a1.092,1.092,0,0,0,2.184,0,1.858,1.858,0,0,1,1.992-1.853,1.858,1.858,0,0,1,.274,3.666,1.905,1.905,0,0,0-1.5,1.868V65a1.092,1.092,0,1,0,2.184,0v-1.98a4.043,4.043,0,1,0-5.134-3.893Z" transform="translate(-273.974 -49.067)"/>
    <path id="Path_46" data-name="Path 46" d="M347.878,168.92a1.091,1.091,0,1,0,.772.319A1.1,1.1,0,0,0,347.878,168.92Z" transform="translate(-298.036 -150.473)"/>
  </g>
</svg>
