<svg xmlns="http://www.w3.org/2000/svg" width="178" height="178" viewBox="0 0 178 178">
  <g id="password" transform="translate(-1 -1)">
    <path id="Path_405" data-name="Path 405" d="M135.024,17.484V40.452A11.481,11.481,0,0,1,123.54,51.935H23.056l-.086-.057a34.4,34.4,0,0,0,8.7-22.91,34.4,34.4,0,0,0-8.7-22.91L23.056,6H123.54A11.481,11.481,0,0,1,135.024,17.484Z" transform="translate(41.105 9.355)" fill="#ff7275"/>
    <path id="Path_434" data-name="Path 434" d="M34.552,0A34.552,34.552,0,1,1,0,34.552,34.552,34.552,0,0,1,34.552,0Z" transform="translate(4.214 4.214)" fill="#f7f6fa"/>
    <path id="Path_406" data-name="Path 406" d="M51.622,36.068l.029.029a34.472,34.472,0,0,1-45.591,0l.029-.029a22.948,22.948,0,0,1,45.534,0Z" transform="translate(9.467 28.065)" fill="#f8c2c5"/>
    <ellipse id="Ellipse_20" data-name="Ellipse 20" cx="15" cy="14.5" rx="15" ry="14.5" transform="translate(23 15)" fill="#f0d0b4"/>
    <path id="Path_407" data-name="Path 407" d="M81.419,50.71V73.677H67.065V50.71a14.355,14.355,0,1,0-28.71,0V73.677H24V50.71a28.71,28.71,0,1,1,57.419,0Z" transform="translate(43.032 39.29)" fill="#969faa"/>
    <path id="Path_408" data-name="Path 408" d="M90.9,45.742V97.419a5.759,5.759,0,0,1-5.742,5.742H27.742A5.759,5.759,0,0,1,22,97.419V45.742A5.759,5.759,0,0,1,27.742,40H85.161A5.759,5.759,0,0,1,90.9,45.742Z" transform="translate(39.29 72.968)" fill="#ff7275"/>
    <path id="Path_409" data-name="Path 409" d="M52.971,55.486a11.475,11.475,0,0,1-5.742,9.9V78.454A5.784,5.784,0,0,1,41.487,84.2a5.759,5.759,0,0,1-5.742-5.742V65.391a11.477,11.477,0,1,1,17.226-9.9Z" transform="translate(54.255 80.449)" fill="#e6e9ed"/>
    <path id="Path_410" data-name="Path 410" d="M16.3,45.148A5.742,5.742,0,1,1,14,49.742,5.775,5.775,0,0,1,16.3,45.148Z" transform="translate(24.323 80.452)" fill="#fcd770"/>
    <path id="Path_411" data-name="Path 411" d="M59.187,45.148a5.82,5.82,0,0,1,2.3,4.594,5.742,5.742,0,1,1-2.3-4.594Z" transform="translate(91.677 80.452)" fill="#fcd770"/>
    <path id="Path_412" data-name="Path 412" d="M55,11h5.742v5.742H55Z" transform="translate(101.032 18.71)"/>
    <path id="Path_413" data-name="Path 413" d="M55,15h5.742v5.742H55Z" transform="translate(101.032 26.194)"/>
    <path id="Path_414" data-name="Path 414" d="M57,13h5.742v5.742H57Z" transform="translate(104.774 22.452)"/>
    <path id="Path_415" data-name="Path 415" d="M53,13h5.742v5.742H53Z" transform="translate(97.29 22.452)"/>
    <path id="Path_416" data-name="Path 416" d="M47,11h5.742v5.742H47Z" transform="translate(86.065 18.71)"/>
    <path id="Path_417" data-name="Path 417" d="M47,15h5.742v5.742H47Z" transform="translate(86.065 26.194)"/>
    <path id="Path_418" data-name="Path 418" d="M49,13h5.742v5.742H49Z" transform="translate(89.806 22.452)"/>
    <path id="Path_419" data-name="Path 419" d="M45,13h5.742v5.742H45Z" transform="translate(82.323 22.452)"/>
    <path id="Path_420" data-name="Path 420" d="M39,11h5.742v5.742H39Z" transform="translate(71.097 18.71)"/>
    <path id="Path_421" data-name="Path 421" d="M39,15h5.742v5.742H39Z" transform="translate(71.097 26.194)"/>
    <path id="Path_422" data-name="Path 422" d="M41,13h5.742v5.742H41Z" transform="translate(74.839 22.452)"/>
    <path id="Path_423" data-name="Path 423" d="M37,13h5.742v5.742H37Z" transform="translate(67.355 22.452)"/>
    <path id="Path_424" data-name="Path 424" d="M31,11h5.742v5.742H31Z" transform="translate(56.129 18.71)"/>
    <path id="Path_425" data-name="Path 425" d="M31,15h5.742v5.742H31Z" transform="translate(56.129 26.194)"/>
    <path id="Path_426" data-name="Path 426" d="M33,13h5.742v5.742H33Z" transform="translate(59.871 22.452)"/>
    <path id="Path_427" data-name="Path 427" d="M29,13h5.742v5.742H29Z" transform="translate(52.387 22.452)"/>
    <path id="Path_428" data-name="Path 428" d="M164.645,12.484H65.192a37.323,37.323,0,1,0,0,51.677H77.64A31.551,31.551,0,0,0,64.161,90v20.625a8.6,8.6,0,0,0-5.742,8.085v51.677A8.623,8.623,0,0,0,67.032,179h57.419a8.623,8.623,0,0,0,8.613-8.613V118.71a8.6,8.6,0,0,0-5.742-8.085V90a31.551,31.551,0,0,0-13.479-25.839h50.8A14.371,14.371,0,0,0,179,49.806V26.839a14.371,14.371,0,0,0-14.355-14.355ZM6.742,38.323A31.581,31.581,0,1,1,62.651,58.434,25.894,25.894,0,0,0,48.718,43.413a17.226,17.226,0,1,0-20.792,0A25.894,25.894,0,0,0,13.994,58.434,31.426,31.426,0,0,1,6.742,38.323Zm20.1-8.613A11.484,11.484,0,1,1,38.323,41.194,11.5,11.5,0,0,1,26.839,29.71ZM18.665,63A20.06,20.06,0,0,1,57.98,63a31.424,31.424,0,0,1-39.315,0ZM127.323,170.387a2.872,2.872,0,0,1-2.871,2.871H67.032a2.872,2.872,0,0,1-2.871-2.871V118.71a2.872,2.872,0,0,1,2.871-2.871h57.419a2.872,2.872,0,0,1,2.871,2.871Zm-20.1-60.29H84.258V90a11.484,11.484,0,0,1,22.968,0ZM121.581,90v20.1h-8.613V90a17.226,17.226,0,0,0-34.452,0v20.1H69.9V90a25.839,25.839,0,1,1,51.677,0Zm51.677-40.194a8.623,8.623,0,0,1-8.613,8.613H69.722a37.057,37.057,0,0,0,0-40.194h94.923a8.623,8.623,0,0,1,8.613,8.613Z"/>
    <path id="Path_429" data-name="Path 429" d="M52.27,46.108A14.425,14.425,0,0,0,39.942,43.4a14.319,14.319,0,0,0-5.205,25.388V80.321a8.613,8.613,0,0,0,17.226,0V68.777a14.292,14.292,0,0,0,.307-22.669ZM47.648,64.764l-1.427.83V80.321a2.871,2.871,0,1,1-5.742,0V65.593l-1.427-.83a8.583,8.583,0,0,1,2.193-15.779,9.336,9.336,0,0,1,2.122-.247A8.482,8.482,0,0,1,48.7,50.6a8.561,8.561,0,0,1-1.051,14.16Z" transform="translate(52.392 78.582)"/>
    <path id="Path_430" data-name="Path 430" d="M71.457,32.876a65.818,65.818,0,0,1-11.366,29.47,8.528,8.528,0,0,0-2.478-.4,8.624,8.624,0,1,0,7.123,3.778,71.581,71.581,0,0,0,12.42-32.132ZM57.613,73.426a2.871,2.871,0,1,1,2.871-2.871A2.872,2.872,0,0,1,57.613,73.426Z" transform="translate(89.806 59.639)"/>
    <path id="Path_431" data-name="Path 431" d="M56.989,29.254c.032.844.049,1.7.049,2.549q0,1.382-.057,2.753l5.736.235q.065-1.486.063-2.989c0-.927-.017-1.852-.055-2.768Z" transform="translate(104.737 52.454)"/>
    <path id="Path_432" data-name="Path 432" d="M28.734,61.94a8.434,8.434,0,0,0-2.478.408A65.818,65.818,0,0,1,14.89,32.877l-5.7.712a71.522,71.522,0,0,0,12.42,32.132,8.533,8.533,0,0,0-1.493,4.832,8.613,8.613,0,1,0,8.613-8.613Zm0,11.484A2.871,2.871,0,1,1,31.6,70.553,2.872,2.872,0,0,1,28.734,73.424Z" transform="translate(15.331 59.641)"/>
    <path id="Path_433" data-name="Path 433" d="M14.742,31.8c0-.853.017-1.705.049-2.549l-5.736-.218C9.017,29.952,9,30.876,9,31.8q0,1.5.06,2.989l5.736-.235C14.762,33.644,14.742,32.725,14.742,31.8Z" transform="translate(14.968 52.454)"/>
  </g>
</svg>
