<svg id="one-time-password" xmlns="http://www.w3.org/2000/svg" width="200" height="200" viewBox="0 0 200 200">
  <path id="Path_453" data-name="Path 453" d="M240,8h12.344V26.516H240Zm0,0" transform="translate(-146.172 -4.914)" fill="#707070"/>
  <path id="Path_454" data-name="Path 454" d="M227.413,101.14a53.423,53.423,0,0,0-50.508-53.153c-28.385-1.68-53.173,18.849-56.536,46.82a53.283,53.283,0,0,0,43.855,58.664v72.861h47.391V210.683H183.181V195.034h18.957V179.385H183.181V153.471a53.327,53.327,0,0,0,44.232-52.331Zm0,0" transform="translate(-73.703 -29.417)" fill="#ff7275"/>
  <path id="Path_455" data-name="Path 455" d="M234.064,125.032A37.032,37.032,0,1,1,197.032,88,37.032,37.032,0,0,1,234.064,125.032Zm0,0" transform="translate(-97.032 -53.367)" fill="#f7f6fa"/>
  <g id="Group_351" data-name="Group 351" transform="translate(72.226 68.909)">
    <path id="Path_456" data-name="Path 456" d="M312,176h6.172v6.172H312Zm0,0" transform="translate(-262.624 -176)" fill="#ff7275"/>
    <path id="Path_457" data-name="Path 457" d="M184,176h6.172v6.172H184Zm0,0" transform="translate(-184 -176)" fill="#ff7275"/>
    <path id="Path_458" data-name="Path 458" d="M248,240h6.172v6.172H248Zm0,0" transform="translate(-223.312 -215.312)" fill="#ff7275"/>
  </g>
  <path id="Path_459" data-name="Path 459" d="M405.581,52.263l5.7-2.363a83.363,83.363,0,0,0-23.654-32.052l-3.946,4.747a77.272,77.272,0,0,1,21.9,29.668Zm0,0" transform="translate(-233.179 -10.963)"/>
  <path id="Path_460" data-name="Path 460" d="M84.324,22.594l-3.946-4.747A83.791,83.791,0,0,0,56.7,49.893l5.7,2.375A77.576,77.576,0,0,1,84.324,22.594Zm0,0" transform="translate(-34.825 -10.963)"/>
  <path id="Path_461" data-name="Path 461" d="M362.627,69.467l6.07-1.118a71.01,71.01,0,0,0-40.259-51.622l-2.574,5.611a64.831,64.831,0,0,1,36.764,47.129Zm0,0" transform="translate(-197.665 -10.274)"/>
  <path id="Path_462" data-name="Path 462" d="M75.1,68.349l6.07,1.118a64.832,64.832,0,0,1,36.764-47.129l-2.574-5.611A71.01,71.01,0,0,0,75.1,68.349Zm0,0" transform="translate(-46.129 -10.274)"/>
  <path id="Path_463" data-name="Path 463" d="M232.236,120.118a40.118,40.118,0,1,0-40.118,40.118A40.118,40.118,0,0,0,232.236,120.118Zm-40.118,33.946a33.946,33.946,0,1,1,33.946-33.946A33.946,33.946,0,0,1,192.118,154.064Zm0,0" transform="translate(-92.118 -48.483)"/>
  <path id="Path_464" data-name="Path 464" d="M254.172,112H248v30.86h18.516v-6.172H254.172Zm0,0" transform="translate(-151 -68.149)"/>
  <path id="Path_465" data-name="Path 465" d="M225.59,71.875a56.456,56.456,0,0,0-47.33-55.4V0H159.328V16.472a56.089,56.089,0,0,0-3.155,110.21V200h53.641V178.125h-28.4V168.75h18.932V146.875H181.415V126.681A56.263,56.263,0,0,0,225.59,71.875ZM165.639,6.25h6.311v9.534c-1.051-.058-2.089-.159-3.155-.159s-2.1.1-3.155.159Zm28.4,146.875V162.5H175.1v21.875h28.4v9.375H162.483V121.506l-2.6-.459a50.445,50.445,0,1,1,17.823,0l-2.6.459v31.619Zm0,0" transform="translate(-68.794)"/>
  <path id="Path_466" data-name="Path 466" d="M0,280H30.86v6.172H0Zm0,0" transform="translate(0 -170.581)"/>
  <path id="Path_467" data-name="Path 467" d="M0,360H30.86v6.172H0Zm0,0" transform="translate(0 -219.318)"/>
  <path id="Path_468" data-name="Path 468" d="M0,320H49.376v6.172H0Zm0,0" transform="translate(0 -194.949)"/>
  <path id="Path_469" data-name="Path 469" d="M432,280h30.86v6.172H432Zm0,0" transform="translate(-262.86 -170.581)"/>
  <path id="Path_470" data-name="Path 470" d="M432,360h30.86v6.172H432Zm0,0" transform="translate(-262.86 -219.318)"/>
  <path id="Path_471" data-name="Path 471" d="M384,320h49.376v6.172H384Zm0,0" transform="translate(-233.376 -194.949)"/>
</svg>
